{"title":"Anatomy Of A Murder 1959 720p BluRay x264-HD4U","uid":7042481,"size":7038606256,"categoryP":"video","categoryS":"hd___movies","magnet":"?xt=urn:btih:49031d2bd8091f8584f34cef8e8a8b53a08ccf08&amp;dn=Anatomy+Of+A+Murder+1959+720p+BluRay+x264-HD4U&amp;tr=udp%3A%2F%2Ftracker.openbittorrent.com%3A80&amp;tr=udp%3A%2F%2Fopen.demonii.com%3A1337&amp;tr=udp%3A%2F%2Ftracker.coppersurfer.tk%3A6969&amp;tr=udp%3A%2F%2Fexodus.desync.com%3A6969","seeders":2,"leechers":1,"uploader":"mfccorrea","files":2,"time":1329601369,"description":"Based on the best-selling novel by Robert Traver, Anatomy of a Murder stars James Stewart as seat-of-the-pants Michigan lawyer Paul Biegler. Through the intervention of his alcoholic mentor, Parnell McCarthy (Arthur O'Connell), Biegler accepts the case of one Lt. Manion (Ben Gazzara), an unlovable lout who has murdered a local bar owner. Manion admits that he committed the crime, citing as his motive the victim's rape of the alluring Mrs. Manion (Lee Remick). Faced with the formidable opposition of big-city prosecutor Claude Dancer (George C. Scott), Biegler hopes to win freedom for his client by using as his defense the argument of &quot;irresistible impulse.&quot; Also featured in the cast is Eve Arden as Biegler's sardonic secretary, Katherine Grant as the woman who inherits the dead man's business, and Joseph N. Welch -- who in real life was the defense attorney in the Army-McCarthy hearings -- as the ever-patient judge. The progressive-jazz musical score is provided by Duke Ellington, who also appears in a brief scene. Producer/director Otto Preminger once more pushed the envelope in Anatomy of a Murder by utilizing technical terminology referring to sexual penetration, which up until 1959 was a cinematic no-no. Contrary to popular belief, Preminger was not merely being faithful to the novel; most of the banter about &quot;panties&quot; and &quot;semen,&quot; not to mention the 11-hour courtroom revelation, was invented for the film. \n\n   General\n      Complete name :anatomy.of.a.murder.1959.720-hd4u.mkv\n      Format : Matroska\n      File size : 6.56 GiB\n      Duration : 2h 40mn\n      Overall bit rate : 5 837 Kbps\n      Encoded date : UTC 2012-02-11 17:58:34\n      Writing application : mkvmerge v5.1.0 ('And so it goes') built on Nov 28 2011 23:58:28\n      Writing library : libebml v1.2.3 + libmatroska v1.3.0\n   Video #1\n      ID : 1\n      Format : AVC\n      Format/Info : Advanced Video Codec\n      Format profile : &lt;a class=&quot;__cf_email__&quot; href=&quot;/cdn-cgi/l/email-protection&quot; data-cfemail=&quot;3c74555b547c7008120d&quot;&gt;[email&amp;#160;protected]&lt;/a&gt;&lt;script cf-hash='f9e31' type=&quot;text/javascript&quot;&gt;\n/* &lt;![CDATA[ */!function(){try{var t=&quot;currentScript&quot;in document?document.currentScript:function(){for(var t=document.getElementsByTagName(&quot;script&quot;),e=t.length;e--;)if(t[e].getAttribute(&quot;cf-hash&quot;))return t[e]}();if(t&amp;&amp;t.previousSibling){var e,r,n,i,c=t.previousSibling,a=c.getAttribute(&quot;data-cfemail&quot;);if(a){for(e=&quot;&quot;,r=parseInt(a.substr(0,2),16),n=2;a.length-n;n+=2)i=parseInt(a.substr(n,2),16)^r,e+=String.fromCharCode(i);e=document.createTextNode(e),c.parentNode.replaceChild(e,c)}}}catch(u){}}();/* ]]&gt; */&lt;/script&gt;\n      Format settings, CABAC : Yes\n      Format settings, ReFrames : 5 frames\n      Muxing mode : Container profile=&lt;a class=&quot;__cf_email__&quot; href=&quot;/cdn-cgi/l/email-protection&quot; data-cfemail=&quot;a5f0cbcecbcad2cbe5918b94&quot;&gt;[email&amp;#160;protected]&lt;/a&gt;&lt;script cf-hash='f9e31' type=&quot;text/javascript&quot;&gt;\n/* &lt;![CDATA[ */!function(){try{var t=&quot;currentScript&quot;in document?document.currentScript:function(){for(var t=document.getElementsByTagName(&quot;script&quot;),e=t.length;e--;)if(t[e].getAttribute(&quot;cf-hash&quot;))return t[e]}();if(t&amp;&amp;t.previousSibling){var e,r,n,i,c=t.previousSibling,a=c.getAttribute(&quot;data-cfemail&quot;);if(a){for(e=&quot;&quot;,r=parseInt(a.substr(0,2),16),n=2;a.length-n;n+=2)i=parseInt(a.substr(n,2),16)^r,e+=String.fromCharCode(i);e=document.createTextNode(e),c.parentNode.replaceChild(e,c)}}}catch(u){}}();/* ]]&gt; */&lt;/script&gt;\n      Codec ID : V_MPEG4/ISO/AVC\n      Duration : 2h 40mn\n      Bit rate : 4 211 Kbps\n      Nominal bit rate : 4 329 Kbps\n      Width : 1 280 pixels\n      Height : 696 pixels\n      Display aspect ratio : 16:9\n      Frame rate : 23.976 fps\n      Resolution : 24 bits\n      Colorimetry : 4:2:0\n      Scan type : Progressive\n      Bits/(Pixel*Frame) : 0.197\n      Stream size : 4.72 GiB (72%)      \n   Audio #2\n      ID : 2\n      Format : DTS\n      Format/Info : Digital Theater Systems\n      Codec ID : A_DTS\n      Duration : 2h 40mn\n      Bit rate mode : Constant\n      Bit rate : 1 510 Kbps\n      Channel(s) : 6 channels\n      Channel positions : Front: L C R, Surround: L R, LFE\n      Sampling rate : 48.0 KHz\n      Resolution : 24 bits\n      Stream size : 1.70 GiB (26%)\n   Text #3\n      ID : 3\n      Format : UTF-8\n      Codec ID : S_TEXT/UTF8\n      Codec ID/Info : UTF-8 Plain Text\n &lt;a href=&quot;\nhttp://www.imdb.com/title/tt0052561/&quot; rel=&quot;nofollow&quot; target=&quot;_NEW&quot;&gt;\nhttp://www.imdb.com/title/tt0052561/&lt;/a&gt;\n\nAudio: English\nSubtitles: English (in mkv), Portugueses (srt)","torrent":{"xt":"urn:btih:49031d2bd8091f8584f34cef8e8a8b53a08ccf08","amp;dn":"Anatomy+Of+A+Murder+1959+720p+BluRay+x264-HD4U","amp;tr":["udp%3A%2F%2Ftracker.openbittorrent.com%3A80","udp%3A%2F%2Fopen.demonii.com%3A1337","udp%3A%2F%2Ftracker.coppersurfer.tk%3A6969","udp%3A%2F%2Fexodus.desync.com%3A6969"],"infoHash":"49031d2bd8091f8584f34cef8e8a8b53a08ccf08","infoHashBuffer":{"type":"Buffer","data":[73,3,29,43,216,9,31,133,132,243,76,239,142,138,139,83,160,140,207,8]},"announce":[],"urlList":[]}}